<?xml version="1.0" encoding="UTF-8"?>
<svg id="uuid-7832b894-befb-4b91-a697-d53b0cfcb62b" data-name="Layer 1" xmlns="http://www.w3.org/2000/svg" width="595.276" height="353.319" viewBox="0 0 595.276 353.319">
  <defs>
    <style>
      .uuid-5f904976-d0df-4454-a107-b9c369d22af1 {
        fill: #e6e6e6;
      }

      .uuid-91a47e3c-660a-4e3c-8882-ed02f07ab9d0 {
        fill: #e00;
      }

      .uuid-0769f075-b789-4122-835b-74bc2f7f1bd3 {
        fill: #fff;
      }

      .uuid-c846ef5c-8b3c-416d-8b84-00d587341997 {
        fill: none;
        stroke: #000;
        stroke-miterlimit: 10;
      }
    </style>
  </defs>
  <rect class="uuid-5f904976-d0df-4454-a107-b9c369d22af1" x="21.105" y="149.392" width="88.421" height="56.842"/>
  <rect class="uuid-5f904976-d0df-4454-a107-b9c369d22af1" x="176.895" y="149.392" width="88.421" height="56.842"/>
  <rect class="uuid-5f904976-d0df-4454-a107-b9c369d22af1" x="332.684" y="149.392" width="88.421" height="56.842"/>
  <rect class="uuid-5f904976-d0df-4454-a107-b9c369d22af1" x="176.895" y="22.023" width="88.421" height="56.842"/>
  <rect class="uuid-5f904976-d0df-4454-a107-b9c369d22af1" x="488.474" y="149.392" width="88.421" height="56.842"/>
  <g>
    <line class="uuid-c846ef5c-8b3c-416d-8b84-00d587341997" x1="211.632" y1="84.248" x2="211.632" y2="149.392"/>
    <polygon points="207.892 85.342 211.632 78.865 215.371 85.342 207.892 85.342"/>
  </g>
  <g>
    <line class="uuid-c846ef5c-8b3c-416d-8b84-00d587341997" x1="230.579" y1="78.865" x2="230.579" y2="144.009"/>
    <polygon points="226.839 142.915 230.579 149.392 234.319 142.915 226.839 142.915"/>
  </g>
  <g>
    <path d="M201.186,61.472l.65-.879c.899,.74,1.549,1.02,2.358,1.02,.919,0,1.559-.47,1.559-1.12,0-.569-.339-.839-1.269-1l-1.29-.22c-1.209-.22-1.799-.819-1.799-1.779,0-1.27,1.009-2.109,2.579-2.109,1.049,0,2.009,.31,2.809,.899l-.61,.899c-.7-.53-1.449-.81-2.239-.81-.839,0-1.399,.43-1.399,1,0,.51,.32,.77,1.079,.89l1.25,.21c1.409,.25,2.069,.869,2.069,1.929,0,1.289-1.14,2.199-2.809,2.199-1.099,0-2.049-.38-2.938-1.129Z"/>
    <path d="M208.485,61.192v-2.809h-1v-.899h1v-1.379l1.129-.24v1.619h1.389v.899h-1.389v2.559c0,.49,.19,.68,.7,.68,.22,0,.379-.03,.68-.12v.949c-.29,.09-.67,.14-.97,.14-1.009,0-1.539-.48-1.539-1.399Z"/>
    <path d="M211.695,59.993c0-1.479,1.08-2.589,2.519-2.589,1.429,0,2.509,1.109,2.509,2.589s-1.08,2.588-2.509,2.588c-1.439,0-2.519-1.109-2.519-2.588Zm3.918,0c0-.93-.59-1.629-1.399-1.629-.819,0-1.409,.7-1.409,1.629,0,.939,.59,1.629,1.409,1.629,.81,0,1.399-.689,1.399-1.629Z"/>
    <path d="M217.895,57.484h1.109v.709c.36-.47,.919-.75,1.559-.75,1.269,0,2.259,1.129,2.259,2.549,0,1.429-1.02,2.548-2.329,2.548-.59,0-1.109-.22-1.469-.64v2.679h-1.129v-7.096Zm3.818,2.509c0-.91-.64-1.599-1.489-1.599-.5,0-.91,.2-1.199,.56v2.089c.29,.35,.72,.56,1.199,.56,.859,0,1.489-.689,1.489-1.609Z"/>
    <path d="M224.005,57.484h1.109v.709c.36-.47,.919-.75,1.559-.75,1.27,0,2.259,1.129,2.259,2.549,0,1.429-1.02,2.548-2.329,2.548-.59,0-1.109-.22-1.469-.64v2.679h-1.129v-7.096Zm3.818,2.509c0-.91-.64-1.599-1.489-1.599-.5,0-.91,.2-1.199,.56v2.089c.29,.35,.72,.56,1.199,.56,.859,0,1.489-.689,1.489-1.609Z"/>
    <path d="M229.885,59.993c0-1.469,1.06-2.589,2.438-2.589,1.37,0,2.369,1.089,2.369,2.589v.27h-3.698c.11,.81,.72,1.399,1.499,1.399,.47,0,.91-.18,1.189-.47l.74,.669c-.61,.51-1.219,.73-1.979,.73-1.439,0-2.559-1.129-2.559-2.599Zm3.738-.43c-.12-.73-.64-1.239-1.309-1.239-.68,0-1.179,.49-1.309,1.239h2.618Z"/>
    <path d="M235.635,59.993c0-1.429,1.029-2.549,2.339-2.549,.569,0,1.089,.23,1.459,.65v-2.769l1.129-.2v7.366h-1.119v-.66c-.36,.45-.919,.709-1.549,.709-1.27,0-2.259-1.129-2.259-2.548Zm3.798,1.049v-2.109c-.29-.34-.72-.54-1.189-.54-.859,0-1.499,.68-1.499,1.599,0,.909,.64,1.599,1.499,1.599,.49,0,.9-.19,1.189-.55Z"/>
  </g>
  <g>
    <path d="M199.975,176.586h3.108c1.389,0,2.339,.859,2.339,2.119,0,.91-.54,1.619-1.389,1.919l1.479,2.958h-1.329l-1.35-2.798h-1.659v2.798h-1.2v-6.996Zm2.999,3.238c.75,0,1.239-.44,1.239-1.109,0-.68-.49-1.12-1.239-1.12h-1.799v2.229h1.799Z"/>
    <path d="M206.415,181.874v-3.298h1.139v2.968c0,.74,.43,1.209,1.1,1.209,.45,0,.83-.2,1.089-.6v-3.578h1.129v5.007h-1.129v-.81c-.38,.59-.919,.89-1.589,.89-1.02,0-1.739-.74-1.739-1.789Z"/>
    <path d="M212.275,178.575h1.129v.82c.38-.59,.929-.9,1.579-.9,1.029,0,1.749,.73,1.749,1.789v3.298h-1.14v-2.979c0-.729-.43-1.199-1.099-1.199-.46,0-.83,.21-1.089,.61v3.568h-1.129v-5.007Z"/>
    <path d="M218.095,178.575h1.129v.82c.38-.59,.929-.9,1.579-.9,1.029,0,1.749,.73,1.749,1.789v3.298h-1.14v-2.979c0-.729-.43-1.199-1.099-1.199-.46,0-.83,.21-1.089,.61v3.568h-1.129v-5.007Z"/>
    <path d="M223.655,182.143c0-.899,.739-1.469,1.919-1.469,.47,0,.909,.1,1.349,.32v-.56c0-.66-.38-1-1.149-1-.42,0-.879,.12-1.459,.39l-.4-.82c.75-.34,1.409-.51,2.079-.51,1.31,0,2.049,.66,2.049,1.819v3.268h-1.119v-.52c-.43,.419-.91,.609-1.489,.609-1.049,0-1.779-.629-1.779-1.529Zm2.089,.73c.45,0,.839-.13,1.179-.42v-.81c-.36-.17-.72-.24-1.149-.24-.649,0-1.06,.27-1.06,.72,0,.459,.4,.75,1.03,.75Z"/>
    <path d="M229.415,176.446l1.129-.19v2.989c.35-.44,.909-.71,1.539-.71,1.27,0,2.259,1.129,2.259,2.549,0,1.429-1.02,2.548-2.329,2.548-.59,0-1.109-.24-1.489-.689v.64h-1.109v-7.136Zm3.818,4.638c0-.91-.64-1.599-1.489-1.599-.5,0-.91,.2-1.199,.56v2.089c.29,.35,.72,.56,1.199,.56,.859,0,1.489-.689,1.489-1.609Z"/>
    <path d="M235.524,176.417l1.129-.2v7.366h-1.129v-7.166Z"/>
    <path d="M237.814,181.084c0-1.469,1.06-2.589,2.438-2.589,1.37,0,2.369,1.089,2.369,2.589v.27h-3.698c.11,.81,.72,1.399,1.499,1.399,.47,0,.91-.18,1.189-.47l.74,.669c-.61,.51-1.219,.73-1.979,.73-1.439,0-2.559-1.129-2.559-2.599Zm3.738-.43c-.12-.73-.64-1.239-1.309-1.239-.68,0-1.179,.49-1.309,1.239h2.618Z"/>
    <path d="M204.48,193.134c0-2.049,.85-3.698,2.429-4.668l.59,.729c-1.29,.83-1.999,2.219-1.999,3.938,0,1.729,.709,3.118,1.999,3.947l-.59,.72c-1.579-.97-2.429-2.618-2.429-4.667Z"/>
    <path d="M208.63,190.575h1.129v1.08c.28-.76,.759-1.169,1.379-1.169,.19,.01,.32,.03,.49,.1v.989c-.18-.07-.41-.12-.62-.12-.549,0-1,.31-1.249,.83v3.298h-1.129v-5.007Z"/>
    <path d="M212.1,193.083c0-1.469,1.06-2.588,2.438-2.588,1.37,0,2.369,1.089,2.369,2.588v.271h-3.698c.11,.81,.72,1.399,1.499,1.399,.47,0,.91-.181,1.189-.47l.74,.669c-.61,.51-1.219,.729-1.979,.729-1.439,0-2.559-1.129-2.559-2.599Zm3.738-.43c-.12-.729-.64-1.239-1.309-1.239-.68,0-1.179,.49-1.309,1.239h2.618Z"/>
    <path d="M217.75,194.143c0-.899,.739-1.469,1.919-1.469,.47,0,.909,.1,1.349,.319v-.56c0-.659-.38-.999-1.149-.999-.42,0-.879,.12-1.459,.39l-.4-.819c.75-.34,1.409-.51,2.079-.51,1.31,0,2.049,.66,2.049,1.819v3.269h-1.119v-.52c-.43,.42-.91,.609-1.489,.609-1.049,0-1.779-.63-1.779-1.529Zm2.089,.729c.45,0,.839-.13,1.179-.419v-.81c-.36-.17-.72-.24-1.149-.24-.649,0-1.06,.27-1.06,.72,0,.46,.4,.749,1.03,.749Z"/>
    <path d="M223.28,193.083c0-1.429,1.029-2.548,2.339-2.548,.569,0,1.089,.23,1.459,.65v-2.769l1.129-.2v7.366h-1.119v-.659c-.36,.449-.919,.709-1.549,.709-1.27,0-2.259-1.129-2.259-2.549Zm3.798,1.05v-2.108c-.29-.34-.72-.54-1.189-.54-.859,0-1.499,.68-1.499,1.599,0,.91,.64,1.6,1.499,1.6,.49,0,.9-.19,1.189-.55Z"/>
    <path d="M229.41,197.702v-.979c.13,.029,.29,.04,.44,.04,.4,0,.64-.181,.81-.57l.23-.56-1.889-5.057h1.25l1.279,3.708,1.389-3.708h1.239l-2.398,5.876c-.39,.97-.85,1.319-1.789,1.319-.16,0-.36-.02-.56-.069Z"/>
    <path d="M237.729,193.144c0,2.049-.85,3.698-2.429,4.667l-.59-.729c1.29-.829,1.999-2.219,1.999-3.938,0-1.729-.709-3.119-1.999-3.948l.59-.719c1.579,.969,2.429,2.619,2.429,4.667Z"/>
  </g>
  <g>
    <path d="M52.46,178.134c0-2.049,.85-3.698,2.429-4.667l.59,.729c-1.29,.83-1.999,2.219-1.999,3.938,0,1.729,.709,3.118,1.999,3.948l-.59,.72c-1.579-.969-2.429-2.619-2.429-4.667Z"/>
    <path d="M56.61,175.576h1.129v.82c.38-.59,.929-.9,1.579-.9,1.029,0,1.749,.73,1.749,1.789v3.298h-1.14v-2.979c0-.729-.43-1.199-1.099-1.199-.46,0-.83,.21-1.089,.61v3.568h-1.129v-5.007Z"/>
    <path d="M62.2,178.084c0-1.469,1.06-2.589,2.438-2.589,1.37,0,2.369,1.089,2.369,2.589v.27h-3.698c.11,.81,.72,1.399,1.499,1.399,.47,0,.91-.18,1.189-.47l.74,.669c-.61,.51-1.219,.73-1.979,.73-1.439,0-2.559-1.129-2.559-2.599Zm3.738-.43c-.12-.73-.64-1.239-1.309-1.239-.68,0-1.179,.49-1.309,1.239h2.618Z"/>
    <path d="M67.591,175.576h1.079l.88,3.528,1.039-3.528h.95l1.029,3.528,.879-3.528h1.05l-1.35,5.007h-1.079l-1.02-3.528-1.009,3.528h-1.1l-1.349-5.007Z"/>
    <path d="M78.169,178.145c0,2.049-.85,3.698-2.429,4.667l-.59-.73c1.29-.83,1.999-2.219,1.999-3.938,0-1.729-.709-3.119-1.999-3.948l.59-.719c1.579,.969,2.429,2.619,2.429,4.667Z"/>
  </g>
  <g>
    <path d="M358.479,176.586h3.108c1.389,0,2.339,.859,2.339,2.119,0,.91-.54,1.619-1.39,1.919l1.479,2.958h-1.329l-1.35-2.798h-1.659v2.798h-1.199v-6.996Zm2.998,3.238c.75,0,1.239-.44,1.239-1.109,0-.68-.489-1.12-1.239-1.12h-1.799v2.229h1.799Z"/>
    <path d="M364.92,181.874v-3.298h1.139v2.968c0,.74,.431,1.209,1.1,1.209,.45,0,.83-.2,1.09-.6v-3.578h1.129v5.007h-1.129v-.81c-.38,.59-.92,.89-1.589,.89-1.02,0-1.739-.74-1.739-1.789Z"/>
    <path d="M370.779,178.575h1.13v.82c.38-.59,.929-.9,1.579-.9,1.029,0,1.749,.73,1.749,1.789v3.298h-1.14v-2.979c0-.729-.43-1.199-1.1-1.199-.46,0-.829,.21-1.089,.61v3.568h-1.13v-5.007Z"/>
    <path d="M376.6,178.575h1.129v.82c.38-.59,.93-.9,1.579-.9,1.029,0,1.749,.73,1.749,1.789v3.298h-1.14v-2.979c0-.729-.43-1.199-1.099-1.199-.46,0-.83,.21-1.09,.61v3.568h-1.129v-5.007Z"/>
    <path d="M382.279,176.866c0-.38,.31-.7,.699-.7,.38,0,.7,.32,.7,.7s-.32,.689-.7,.689c-.39,0-.699-.31-.699-.689Zm.13,1.709h1.129v5.007h-1.129v-5.007Z"/>
    <path d="M384.939,178.575h1.129v.82c.38-.59,.93-.9,1.579-.9,1.029,0,1.749,.73,1.749,1.789v3.298h-1.14v-2.979c0-.729-.43-1.199-1.099-1.199-.46,0-.83,.21-1.09,.61v3.568h-1.129v-5.007Z"/>
    <path d="M391.089,185.282l.39-.83c.59,.29,1.069,.419,1.569,.419,.84,0,1.279-.379,1.279-1.109v-.849c-.36,.439-.909,.699-1.539,.699-1.27,0-2.259-1.129-2.259-2.548s1.029-2.529,2.339-2.529c.579,0,1.099,.23,1.469,.67v-.63h1.119v5.187c0,1.29-.839,2.009-2.358,2.009-.72,0-1.419-.18-2.009-.49Zm3.238-3.158v-2.099c-.29-.34-.72-.54-1.189-.54-.859,0-1.499,.669-1.499,1.589,0,.91,.64,1.599,1.499,1.599,.489,0,.899-.2,1.189-.549Z"/>
    <path d="M351.925,193.134c0-2.049,.85-3.698,2.429-4.668l.59,.729c-1.29,.83-1.999,2.219-1.999,3.938,0,1.729,.709,3.118,1.999,3.947l-.59,.72c-1.579-.97-2.429-2.618-2.429-4.667Z"/>
    <path d="M355.795,193.083c0-1.479,1.079-2.588,2.519-2.588,1.429,0,2.509,1.11,2.509,2.588s-1.08,2.589-2.509,2.589c-1.439,0-2.519-1.109-2.519-2.589Zm3.918,0c0-.929-.59-1.629-1.399-1.629-.819,0-1.409,.7-1.409,1.629,0,.939,.59,1.63,1.409,1.63,.81,0,1.399-.69,1.399-1.63Z"/>
    <path d="M361.994,190.575h1.13v.82c.38-.59,.929-.9,1.579-.9,1.029,0,1.749,.73,1.749,1.79v3.298h-1.14v-2.979c0-.729-.43-1.199-1.1-1.199-.46,0-.829,.21-1.089,.609v3.568h-1.13v-5.007Z"/>
    <path d="M369.805,194.143c0-.899,.739-1.469,1.919-1.469,.47,0,.909,.1,1.349,.319v-.56c0-.659-.38-.999-1.149-.999-.42,0-.879,.12-1.459,.39l-.399-.819c.749-.34,1.409-.51,2.078-.51,1.31,0,2.049,.66,2.049,1.819v3.269h-1.119v-.52c-.43,.42-.909,.609-1.489,.609-1.049,0-1.778-.63-1.778-1.529Zm2.089,.729c.449,0,.839-.13,1.179-.419v-.81c-.359-.17-.72-.24-1.149-.24-.649,0-1.06,.27-1.06,.72,0,.46,.4,.749,1.03,.749Z"/>
    <path d="M377.624,192.084c0-2.029,1.579-3.608,3.618-3.608,1.069,0,2.089,.459,2.729,1.249l-.8,.78c-.499-.62-1.189-.95-1.929-.95-1.359,0-2.389,1.089-2.389,2.529s1.029,2.528,2.389,2.528c.739,0,1.43-.329,1.929-.949l.8,.779c-.64,.79-1.659,1.25-2.729,1.25-2.039,0-3.618-1.579-3.618-3.608Z"/>
    <path d="M385.184,188.586h3.129c1.419,0,2.339,.89,2.339,2.179,0,1.26-.92,2.148-2.339,2.148h-1.929v2.669h-1.2v-6.996Zm2.938,3.348c.85,0,1.319-.47,1.319-1.179,0-.69-.47-1.16-1.309-1.16h-1.749v2.338h1.738Z"/>
    <path d="M391.834,192.584v-3.998h1.199v3.998c0,1.229,.68,2.028,1.739,2.028s1.738-.799,1.738-2.028v-3.998h1.199v3.998c0,1.908-1.139,3.108-2.938,3.108s-2.938-1.2-2.938-3.108Z"/>
    <path d="M401.862,193.144c0,2.049-.85,3.698-2.429,4.667l-.59-.729c1.29-.829,1.999-2.219,1.999-3.938,0-1.729-.709-3.119-1.999-3.948l.59-.719c1.579,.969,2.429,2.619,2.429,4.667Z"/>
  </g>
  <g>
    <path d="M515.479,188.783l3.929-5.207-3.898,.03v-1.02h5.417v.799l-3.918,5.208,3.979-.03v1.02h-5.508v-.8Z"/>
    <path d="M521.6,187.084c0-1.479,1.08-2.589,2.519-2.589,1.43,0,2.509,1.109,2.509,2.589s-1.079,2.588-2.509,2.588c-1.438,0-2.519-1.109-2.519-2.588Zm3.918,0c0-.93-.59-1.629-1.399-1.629-.819,0-1.409,.7-1.409,1.629,0,.939,.59,1.629,1.409,1.629,.81,0,1.399-.689,1.399-1.629Z"/>
    <path d="M527.8,184.575h1.129v.79c.37-.57,.87-.87,1.479-.87,.689,0,1.219,.37,1.479,.959,.39-.629,.949-.959,1.658-.959,.97,0,1.64,.75,1.64,1.809v3.278h-1.13v-3.028c0-.7-.39-1.149-1.009-1.149-.41,0-.75,.19-1,.6,.011,.1,.021,.2,.021,.3v3.278h-1.14v-3.028c0-.7-.39-1.149-1.01-1.149-.409,0-.739,.19-.989,.58v3.598h-1.129v-5.007Z"/>
    <path d="M536.56,182.446l1.129-.19v2.989c.35-.44,.909-.71,1.539-.71,1.27,0,2.259,1.129,2.259,2.549,0,1.429-1.02,2.548-2.328,2.548-.59,0-1.109-.24-1.489-.689v.64h-1.109v-7.136Zm3.817,4.638c0-.91-.64-1.599-1.489-1.599-.499,0-.909,.2-1.199,.56v2.089c.29,.35,.72,.56,1.199,.56,.859,0,1.489-.689,1.489-1.609Z"/>
    <path d="M542.529,182.866c0-.38,.311-.7,.7-.7,.38,0,.699,.32,.699,.7s-.319,.689-.699,.689c-.39,0-.7-.31-.7-.689Zm.13,1.709h1.13v5.007h-1.13v-5.007Z"/>
    <path d="M544.96,187.084c0-1.469,1.06-2.589,2.438-2.589,1.369,0,2.369,1.089,2.369,2.589v.27h-3.698c.109,.81,.72,1.399,1.499,1.399,.47,0,.909-.18,1.189-.47l.739,.669c-.609,.51-1.219,.73-1.979,.73-1.439,0-2.559-1.129-2.559-2.599Zm3.737-.43c-.119-.73-.64-1.239-1.309-1.239-.68,0-1.18,.49-1.31,1.239h2.618Z"/>
  </g>
  <g>
    <path d="M168.961,116.242l.558-.648c.567,.459,.955,.621,1.45,.621,.477,0,.837-.27,.837-.612,0-.243-.153-.387-.531-.486l-.766-.198c-.702-.198-1.053-.594-1.053-1.18,0-.873,.657-1.431,1.692-1.431,.675,0,1.296,.234,1.837,.675l-.558,.639c-.441-.351-.918-.541-1.333-.541-.468,0-.747,.208-.747,.531,0,.252,.135,.387,.522,.495l.765,.207c.747,.207,1.107,.576,1.107,1.135,0,.882-.765,1.539-1.801,1.539-.774,0-1.494-.27-1.98-.747Z"/>
    <path d="M173.677,115.243l.612-2.854h1l-.567,2.62c-.153,.684,.171,1.144,.783,1.144,.369,0,.711-.162,1-.495l.711-3.268h1.008l-.981,4.51h-1l.135-.675c-.405,.486-.9,.738-1.44,.738-.945,0-1.477-.729-1.261-1.719Z"/>
    <path d="M178.33,116.242l.558-.648c.567,.459,.955,.621,1.45,.621,.477,0,.837-.27,.837-.612,0-.243-.153-.387-.531-.486l-.766-.198c-.702-.198-1.053-.594-1.053-1.18,0-.873,.657-1.431,1.692-1.431,.675,0,1.296,.234,1.837,.675l-.558,.639c-.441-.351-.918-.541-1.333-.541-.468,0-.748,.208-.748,.531,0,.252,.135,.387,.522,.495l.765,.207c.747,.207,1.107,.576,1.107,1.135,0,.882-.765,1.539-1.801,1.539-.774,0-1.494-.27-1.98-.747Z"/>
    <path d="M183.694,112.389h.99l-.099,.468c.333-.315,.756-.495,1.225-.495,.99,0,1.747,.882,1.747,2.052,0,1.396-1.036,2.539-2.305,2.539-.604,0-1.081-.261-1.369-.738l-.567,2.565h-.999l1.377-6.392Zm.747,1.206l-.414,1.918c.216,.342,.63,.576,1.071,.576,.837,0,1.477-.693,1.477-1.594,0-.765-.486-1.287-1.18-1.287-.351,0-.675,.135-.954,.387Z"/>
    <path d="M188.374,114.882c0-1.404,1.071-2.566,2.376-2.566,1.107,0,1.882,.829,1.882,2.008,0,.207-.009,.387-.036,.567h-3.25c.009,.72,.531,1.261,1.233,1.261,.387,0,.765-.126,1.035-.36l.54,.657c-.549,.378-1.062,.54-1.656,.54-1.251,0-2.125-.864-2.125-2.106Zm3.358-.621c-.027-.639-.45-1.107-1.044-1.107s-1.08,.45-1.27,1.107h2.314Z"/>
    <path d="M194.134,112.389h.999l-.144,.675c.414-.478,.9-.729,1.45-.729,.963,0,1.485,.711,1.26,1.71l-.612,2.854h-.999l.567-2.611c.153-.684-.162-1.152-.783-1.152-.369,0-.711,.171-.999,.495l-.711,3.268h-1.008l.981-4.51Z"/>
    <path d="M198.58,114.891c0-1.395,1.035-2.539,2.314-2.539,.576,0,1.053,.252,1.35,.693l.549-2.602,1.026-.18-1.387,6.635h-.99l.09-.423c-.324,.297-.738,.468-1.207,.468-.99,0-1.747-.891-1.747-2.053Zm3.106,.829l.405-1.972c-.216-.324-.612-.531-1.053-.531-.829,0-1.468,.693-1.468,1.593,0,.756,.486,1.288,1.17,1.288,.36,0,.666-.126,.945-.378Z"/>
  </g>
  <g>
    <path d="M238.618,112.389h1.008l-.198,.891c.378-.639,.828-.963,1.341-.963,.18,0,.369,.045,.504,.108l-.198,.891c-.108-.081-.378-.135-.594-.135-.441,0-.874,.243-1.179,.675l-.667,3.043h-.999l.981-4.51Z"/>
    <path d="M241.336,114.882c0-1.404,1.071-2.566,2.376-2.566,1.107,0,1.882,.829,1.882,2.008,0,.207-.009,.387-.036,.567h-3.25c.009,.72,.531,1.261,1.233,1.261,.387,0,.765-.126,1.035-.36l.54,.657c-.549,.378-1.062,.54-1.656,.54-1.251,0-2.125-.864-2.125-2.106Zm3.358-.621c-.027-.639-.45-1.107-1.044-1.107s-1.08,.45-1.27,1.107h2.314Z"/>
    <path d="M245.998,116.242l.558-.648c.567,.459,.955,.621,1.45,.621,.477,0,.837-.27,.837-.612,0-.243-.153-.387-.531-.486l-.766-.198c-.702-.198-1.053-.594-1.053-1.18,0-.873,.657-1.431,1.692-1.431,.675,0,1.296,.234,1.837,.675l-.558,.639c-.441-.351-.918-.541-1.333-.541-.468,0-.747,.208-.747,.531,0,.252,.135,.387,.522,.495l.765,.207c.747,.207,1.107,.576,1.107,1.135,0,.882-.765,1.539-1.801,1.539-.774,0-1.494-.27-1.98-.747Z"/>
    <path d="M250.714,115.243l.612-2.854h1l-.567,2.62c-.153,.684,.171,1.144,.783,1.144,.369,0,.711-.162,1-.495l.711-3.268h1.008l-.981,4.51h-1l.135-.675c-.405,.486-.9,.738-1.44,.738-.945,0-1.477-.729-1.261-1.719Z"/>
    <path d="M256.492,112.389h.999l-.162,.756c.423-.541,.892-.811,1.405-.811,.612,0,1.044,.369,1.17,.927,.477-.621,1.017-.927,1.611-.927,.864,0,1.341,.72,1.125,1.702l-.612,2.863h-1l.576-2.719c.135-.612-.144-1.044-.684-1.044-.342,0-.657,.18-1,.585,0,.099-.009,.207-.036,.315l-.612,2.863h-1l.576-2.683c.135-.648-.144-1.081-.684-1.081-.342,0-.648,.171-.945,.522l-.702,3.241h-1.008l.981-4.51Z"/>
    <path d="M263.512,114.882c0-1.404,1.071-2.566,2.376-2.566,1.107,0,1.882,.829,1.882,2.008,0,.207-.009,.387-.036,.567h-3.25c.009,.72,.531,1.261,1.233,1.261,.387,0,.765-.126,1.035-.36l.54,.657c-.549,.378-1.062,.54-1.656,.54-1.251,0-2.125-.864-2.125-2.106Zm3.358-.621c-.027-.639-.45-1.107-1.044-1.107s-1.08,.45-1.27,1.107h2.314Z"/>
  </g>
  <g>
    <line class="uuid-c846ef5c-8b3c-416d-8b84-00d587341997" x1="65.316" y1="78.865" x2="65.316" y2="144.009"/>
    <polygon points="61.576 142.915 65.316 149.392 69.056 142.915 61.576 142.915"/>
  </g>
  <g>
    <line class="uuid-c846ef5c-8b3c-416d-8b84-00d587341997" x1="221.105" y1="211.616" x2="221.105" y2="276.76"/>
    <polygon points="217.366 212.71 221.105 206.234 224.845 212.71 217.366 212.71"/>
  </g>
  <g>
    <line class="uuid-c846ef5c-8b3c-416d-8b84-00d587341997" x1="376.895" y1="206.234" x2="376.895" y2="271.378"/>
    <polygon points="373.155 270.284 376.895 276.76 380.634 270.284 373.155 270.284"/>
  </g>
  <g>
    <path d="M70.551,113.199h-.927l.189-.81h.9l.198-.909c.198-.91,.783-1.405,1.657-1.405,.297,0,.612,.054,.81,.135l-.18,.864c-.198-.072-.387-.108-.594-.108-.405,0-.621,.18-.702,.603l-.18,.819h1.233l-.189,.81h-1.215l-.774,3.7h-1l.774-3.7Z"/>
    <path d="M73.043,114.882c0-1.422,1.089-2.575,2.44-2.575,1.179,0,2.025,.882,2.025,2.106,0,1.414-1.107,2.575-2.439,2.575-1.17,0-2.026-.882-2.026-2.106Zm3.475-.45c0-.756-.432-1.26-1.098-1.26-.774,0-1.396,.747-1.396,1.674,0,.756,.441,1.261,1.098,1.261,.783,0,1.396-.729,1.396-1.675Z"/>
    <path d="M79.02,112.389h1.008l-.198,.891c.378-.639,.828-.963,1.341-.963,.18,0,.369,.045,.504,.108l-.198,.891c-.108-.081-.378-.135-.594-.135-.441,0-.873,.243-1.179,.675l-.667,3.043h-.999l.981-4.51Z"/>
    <path d="M82.872,110.444l1.026-.18-.855,4.087,2.197-1.962h1.251l-2.602,2.242,1.702,2.269h-1.188l-1.467-2.053-.423,2.053h-1.008l1.369-6.455Z"/>
  </g>
  <g>
    <line class="uuid-c846ef5c-8b3c-416d-8b84-00d587341997" x1="532.684" y1="84.248" x2="532.684" y2="149.392"/>
    <polygon points="528.944 85.342 532.684 78.865 536.424 85.342 528.944 85.342"/>
  </g>
  <g>
    <path d="M538.69,112.389h1.008l-.197,.891c.378-.639,.828-.963,1.341-.963,.181,0,.369,.045,.504,.108l-.197,.891c-.108-.081-.379-.135-.595-.135-.44,0-.873,.243-1.179,.675l-.667,3.043h-.999l.981-4.51Z"/>
    <path d="M541.408,114.882c0-1.404,1.071-2.566,2.377-2.566,1.107,0,1.882,.829,1.882,2.008,0,.207-.01,.387-.036,.567h-3.25c.009,.72,.531,1.261,1.233,1.261,.387,0,.765-.126,1.035-.36l.54,.657c-.549,.378-1.062,.54-1.656,.54-1.252,0-2.125-.864-2.125-2.106Zm3.358-.621c-.027-.639-.45-1.107-1.045-1.107s-1.08,.45-1.27,1.107h2.314Z"/>
    <path d="M546.277,115.71c0-.882,.692-1.449,1.773-1.449,.485,0,.954,.117,1.323,.324l.09-.387c.153-.693-.171-1.044-.963-1.044-.334,0-.712,.09-1.225,.288l-.243-.738c.648-.252,1.197-.378,1.71-.378,1.314,0,1.972,.693,1.72,1.836l-.603,2.737h-.99l.09-.405c-.433,.315-.811,.459-1.233,.459-.883,0-1.449-.486-1.449-1.243Zm2.8,.207l.171-.756c-.288-.171-.648-.252-1.081-.252-.585,0-.963,.288-.963,.702,0,.405,.324,.639,.882,.639,.36,0,.676-.099,.991-.333Z"/>
    <path d="M552.028,112.389h.99l-.099,.468c.333-.315,.756-.495,1.225-.495,.99,0,1.746,.882,1.746,2.052,0,1.396-1.035,2.539-2.305,2.539-.604,0-1.08-.261-1.368-.738l-.567,2.565h-.999l1.377-6.392Zm.747,1.206l-.414,1.918c.217,.342,.631,.576,1.071,.576,.838,0,1.477-.693,1.477-1.594,0-.765-.486-1.287-1.179-1.287-.352,0-.676,.135-.955,.387Z"/>
  </g>
  <g>
    <path d="M447.509,171.146c0-1.404,1.071-2.566,2.377-2.566,1.107,0,1.882,.829,1.882,2.008,0,.207-.01,.387-.036,.567h-3.25c.009,.72,.531,1.261,1.233,1.261,.387,0,.765-.126,1.035-.36l.54,.657c-.549,.378-1.062,.54-1.656,.54-1.252,0-2.125-.864-2.125-2.106Zm3.358-.621c-.027-.639-.45-1.107-1.045-1.107s-1.08,.45-1.27,1.107h2.314Z"/>
    <path d="M453.692,170.813l-1.125-2.161h1.116l.72,1.467,1.333-1.467h1.17l-2.125,2.224,1.197,2.287h-1.106l-.783-1.566-1.44,1.566h-1.171l2.215-2.35Z"/>
    <path d="M457.688,168.652h.999l-.973,4.51h-1.008l.981-4.51Zm.152-1.467c0-.369,.324-.703,.693-.703,.307,0,.559,.243,.559,.558,0,.378-.315,.693-.693,.693-.324,0-.559-.234-.559-.549Z"/>
    <path d="M459.775,171.902l.522-2.44h-.882l.18-.81h.864l.271-1.243,1.053-.216-.314,1.458h1.233l-.181,.81h-1.233l-.486,2.26c-.099,.468,.063,.648,.576,.648,.145,0,.234-.009,.514-.081l-.181,.855c-.216,.054-.495,.09-.765,.09-.937,0-1.351-.478-1.171-1.333Z"/>
  </g>
  <g>
    <path d="M382.541,239.48h.937l.107,3.178,1.567-3.178h.854l.234,3.169,1.44-3.169h.954l-2.17,4.51h-.963l-.207-3.178-1.566,3.178h-.973l-.216-4.51Z"/>
    <path d="M388.562,242.802c0-.882,.693-1.449,1.774-1.449,.485,0,.954,.117,1.323,.324l.09-.387c.153-.693-.171-1.044-.963-1.044-.334,0-.712,.09-1.225,.288l-.243-.738c.648-.252,1.197-.378,1.71-.378,1.314,0,1.972,.693,1.72,1.836l-.603,2.737h-.991l.091-.405c-.433,.315-.811,.459-1.233,.459-.883,0-1.45-.486-1.45-1.243Zm2.801,.207l.171-.756c-.288-.171-.648-.252-1.081-.252-.585,0-.963,.288-.963,.702,0,.405,.324,.639,.882,.639,.36,0,.676-.099,.991-.333Z"/>
    <path d="M394.313,239.48h.999l-.973,4.51h-1.008l.981-4.51Zm.152-1.467c0-.369,.324-.703,.693-.703,.307,0,.559,.243,.559,.558,0,.378-.315,.693-.693,.693-.324,0-.559-.234-.559-.549Z"/>
    <path d="M396.4,242.73l.522-2.44h-.882l.18-.81h.864l.271-1.243,1.053-.216-.314,1.458h1.233l-.181,.81h-1.233l-.486,2.26c-.099,.468,.063,.648,.576,.648,.145,0,.234-.009,.514-.081l-.181,.855c-.216,.054-.495,.09-.765,.09-.937,0-1.351-.478-1.171-1.333Z"/>
  </g>
  <g>
    <path d="M293.236,161.522h1.008l-.198,.891c.378-.639,.828-.963,1.341-.963,.18,0,.369,.045,.504,.108l-.198,.891c-.108-.081-.378-.135-.594-.135-.441,0-.874,.243-1.179,.675l-.667,3.043h-.999l.981-4.51Z"/>
    <path d="M296.053,164.376l.612-2.854h1l-.567,2.62c-.153,.684,.171,1.144,.783,1.144,.369,0,.711-.162,1-.495l.711-3.268h1.009l-.981,4.51h-1l.135-.675c-.405,.486-.9,.738-1.44,.738-.945,0-1.477-.729-1.261-1.719Z"/>
    <path d="M301.831,161.522h.999l-.144,.675c.414-.478,.9-.729,1.449-.729,.964,0,1.485,.711,1.261,1.71l-.612,2.854h-.999l.566-2.611c.153-.684-.162-1.152-.783-1.152-.369,0-.711,.171-.999,.495l-.711,3.268h-1.009l.981-4.51Z"/>
  </g>
  <g>
    <path d="M124.77,172.505l.558-.648c.567,.459,.955,.621,1.45,.621,.477,0,.837-.27,.837-.612,0-.243-.153-.387-.531-.486l-.766-.198c-.702-.198-1.053-.594-1.053-1.18,0-.873,.657-1.431,1.692-1.431,.675,0,1.296,.234,1.837,.675l-.558,.639c-.441-.351-.918-.541-1.333-.541-.468,0-.747,.208-.747,.531,0,.252,.135,.387,.522,.495l.765,.207c.747,.207,1.107,.576,1.107,1.135,0,.882-.765,1.539-1.801,1.539-.774,0-1.494-.27-1.98-.747Z"/>
    <path d="M129.432,171.209c0-1.449,1.107-2.62,2.458-2.62,.738,0,1.414,.333,1.783,.9l-.729,.594c-.243-.405-.612-.603-1.08-.603-.783,0-1.44,.747-1.44,1.647,0,.729,.495,1.243,1.17,1.243,.387,0,.747-.153,1.044-.415l.486,.639c-.468,.432-1.071,.657-1.692,.657-1.152,0-1.999-.864-1.999-2.043Z"/>
    <path d="M135.102,166.708l1.044-.18-.594,2.845c.423-.513,.918-.774,1.485-.774,.963,0,1.485,.711,1.26,1.71l-.612,2.854h-.999l.567-2.611c.153-.684-.162-1.152-.783-1.152-.396,0-.756,.189-1.035,.54l-.675,3.223h-1.008l1.351-6.455Z"/>
    <path d="M139.17,171.146c0-1.404,1.071-2.566,2.376-2.566,1.107,0,1.882,.829,1.882,2.008,0,.207-.009,.387-.036,.567h-3.25c.009,.72,.531,1.261,1.233,1.261,.387,0,.765-.126,1.035-.36l.54,.657c-.549,.378-1.062,.54-1.656,.54-1.251,0-2.125-.864-2.125-2.106Zm3.358-.621c-.027-.639-.45-1.107-1.044-1.107s-1.08,.45-1.27,1.107h2.314Z"/>
    <path d="M144.236,171.155c0-1.395,1.035-2.539,2.314-2.539,.576,0,1.053,.252,1.35,.693l.549-2.602,1.026-.18-1.387,6.635h-.99l.09-.423c-.324,.297-.738,.468-1.207,.468-.99,0-1.747-.891-1.747-2.053Zm3.106,.829l.405-1.972c-.216-.324-.612-.531-1.053-.531-.829,0-1.468,.693-1.468,1.593,0,.756,.486,1.288,1.17,1.288,.36,0,.667-.126,.945-.378Z"/>
    <path d="M149.663,171.506l.612-2.854h1l-.567,2.62c-.153,.684,.171,1.144,.783,1.144,.369,0,.711-.162,1-.495l.711-3.268h1.008l-.981,4.51h-1l.135-.675c-.405,.486-.9,.738-1.44,.738-.945,0-1.477-.729-1.261-1.719Z"/>
    <path d="M155.829,166.708l1.026-.18-1.386,6.635h-1.008l1.369-6.455Z"/>
    <path d="M156.98,171.146c0-1.404,1.071-2.566,2.376-2.566,1.107,0,1.882,.829,1.882,2.008,0,.207-.009,.387-.036,.567h-3.25c.009,.72,.531,1.261,1.233,1.261,.387,0,.765-.126,1.035-.36l.54,.657c-.549,.378-1.062,.54-1.656,.54-1.251,0-2.125-.864-2.125-2.106Zm3.358-.621c-.027-.639-.45-1.107-1.044-1.107s-1.08,.45-1.27,1.107h2.314Z"/>
  </g>
  <g>
    <path d="M277.009,191.042h.99l-.099,.468c.333-.315,.756-.495,1.225-.495,.99,0,1.747,.882,1.747,2.052,0,1.396-1.036,2.539-2.305,2.539-.604,0-1.081-.261-1.369-.738l-.567,2.565h-.999l1.377-6.392Zm.747,1.206l-.414,1.918c.216,.342,.63,.576,1.071,.576,.837,0,1.477-.693,1.477-1.594,0-.765-.486-1.287-1.18-1.287-.351,0-.675,.135-.954,.387Z"/>
    <path d="M282.382,191.042h1.008l-.198,.891c.378-.639,.828-.963,1.341-.963,.18,0,.369,.045,.504,.108l-.198,.891c-.108-.081-.378-.135-.594-.135-.441,0-.873,.243-1.179,.675l-.667,3.043h-.999l.981-4.51Z"/>
    <path d="M285.1,193.535c0-1.404,1.071-2.566,2.376-2.566,1.107,0,1.882,.829,1.882,2.008,0,.207-.009,.387-.036,.567h-3.25c.009,.72,.531,1.261,1.233,1.261,.387,0,.765-.126,1.035-.36l.54,.657c-.549,.378-1.062,.54-1.656,.54-1.251,0-2.125-.864-2.125-2.106Zm3.358-.621c-.027-.639-.45-1.107-1.044-1.107s-1.08,.45-1.27,1.107h2.314Z"/>
    <path d="M290.158,193.535c0-1.404,1.071-2.566,2.376-2.566,1.107,0,1.882,.829,1.882,2.008,0,.207-.009,.387-.036,.567h-3.25c.009,.72,.531,1.261,1.233,1.261,.387,0,.765-.126,1.035-.36l.54,.657c-.549,.378-1.062,.54-1.656,.54-1.251,0-2.125-.864-2.125-2.106Zm3.358-.621c-.027-.639-.45-1.107-1.044-1.107s-1.08,.45-1.27,1.107h2.314Z"/>
    <path d="M295.918,191.042h.999l-.162,.756c.423-.541,.891-.811,1.404-.811,.612,0,1.044,.369,1.17,.927,.478-.621,1.018-.927,1.611-.927,.864,0,1.342,.72,1.126,1.702l-.612,2.863h-1l.576-2.719c.136-.612-.144-1.044-.684-1.044-.343,0-.657,.18-.999,.585,0,.099-.01,.207-.036,.315l-.613,2.863h-1l.576-2.683c.135-.648-.144-1.081-.684-1.081-.342,0-.648,.171-.945,.522l-.702,3.241h-1.008l.981-4.51Z"/>
    <path d="M303.641,191.042h.99l-.1,.468c.333-.315,.757-.495,1.225-.495,.99,0,1.747,.882,1.747,2.052,0,1.396-1.036,2.539-2.305,2.539-.604,0-1.081-.261-1.369-.738l-.567,2.565h-.999l1.378-6.392Zm.747,1.206l-.414,1.918c.216,.342,.63,.576,1.071,.576,.837,0,1.477-.693,1.477-1.594,0-.765-.486-1.287-1.18-1.287-.352,0-.675,.135-.954,.387Z"/>
    <path d="M308.599,194.292l.522-2.44h-.882l.18-.81h.864l.271-1.243,1.053-.216-.314,1.458h1.233l-.181,.81h-1.233l-.486,2.26c-.099,.468,.063,.648,.576,.648,.145,0,.234-.009,.514-.081l-.181,.855c-.216,.054-.495,.09-.765,.09-.937,0-1.351-.478-1.171-1.333Z"/>
    <path d="M313.737,193.535c0-1.422,1.09-2.575,2.44-2.575,1.179,0,2.025,.882,2.025,2.106,0,1.414-1.107,2.575-2.439,2.575-1.171,0-2.026-.882-2.026-2.106Zm3.476-.45c0-.756-.433-1.26-1.099-1.26-.774,0-1.396,.747-1.396,1.674,0,.756,.441,1.261,1.099,1.261,.783,0,1.396-.729,1.396-1.675Z"/>
    <path d="M319.714,191.042h1.008l-.197,.891c.378-.639,.828-.963,1.341-.963,.181,0,.369,.045,.504,.108l-.197,.891c-.108-.081-.379-.135-.595-.135-.44,0-.873,.243-1.179,.675l-.667,3.043h-.999l.981-4.51Z"/>
    <path d="M277.414,201.042h1.008l-.198,.891c.378-.639,.828-.963,1.341-.963,.18,0,.369,.045,.504,.108l-.198,.891c-.108-.081-.378-.135-.594-.135-.441,0-.874,.243-1.179,.675l-.667,3.043h-.999l.981-4.51Z"/>
    <path d="M280.132,203.535c0-1.404,1.071-2.566,2.376-2.566,1.107,0,1.882,.829,1.882,2.007,0,.207-.009,.388-.036,.567h-3.25c.009,.721,.531,1.261,1.233,1.261,.387,0,.765-.126,1.035-.36l.54,.657c-.549,.378-1.062,.54-1.656,.54-1.251,0-2.125-.864-2.125-2.106Zm3.358-.621c-.027-.639-.45-1.107-1.044-1.107s-1.08,.45-1.27,1.107h2.314Z"/>
    <path d="M284.793,204.895l.558-.648c.567,.459,.955,.621,1.45,.621,.477,0,.837-.27,.837-.612,0-.242-.153-.387-.531-.485l-.766-.198c-.702-.198-1.053-.595-1.053-1.18,0-.873,.657-1.431,1.692-1.431,.675,0,1.296,.234,1.837,.675l-.558,.639c-.441-.351-.918-.541-1.333-.541-.468,0-.747,.208-.747,.531,0,.252,.135,.388,.522,.495l.765,.207c.747,.207,1.107,.576,1.107,1.135,0,.882-.765,1.539-1.801,1.539-.774,0-1.494-.27-1.98-.747Z"/>
    <path d="M289.456,203.599c0-1.45,1.107-2.62,2.458-2.62,.738,0,1.414,.333,1.783,.9l-.729,.594c-.243-.405-.612-.603-1.08-.603-.783,0-1.44,.748-1.44,1.648,0,.729,.495,1.242,1.17,1.242,.387,0,.747-.153,1.044-.414l.486,.639c-.468,.433-1.071,.657-1.692,.657-1.152,0-1.999-.864-1.999-2.043Z"/>
    <path d="M295.125,199.097l1.044-.18-.594,2.845c.423-.513,.918-.774,1.485-.774,.963,0,1.485,.711,1.26,1.711l-.612,2.854h-.999l.567-2.61c.153-.685-.162-1.153-.783-1.153-.396,0-.756,.189-1.035,.54l-.675,3.223h-1.008l1.351-6.455Z"/>
    <path d="M299.193,203.535c0-1.404,1.071-2.566,2.377-2.566,1.107,0,1.882,.829,1.882,2.007,0,.207-.01,.388-.036,.567h-3.25c.009,.721,.531,1.261,1.233,1.261,.387,0,.765-.126,1.035-.36l.54,.657c-.549,.378-1.062,.54-1.656,.54-1.252,0-2.125-.864-2.125-2.106Zm3.358-.621c-.027-.639-.45-1.107-1.045-1.107s-1.08,.45-1.27,1.107h2.314Z"/>
    <path d="M304.261,203.544c0-1.395,1.035-2.539,2.313-2.539,.576,0,1.054,.252,1.351,.693l.549-2.602,1.026-.18-1.387,6.635h-.99l.091-.423c-.324,.297-.738,.468-1.207,.468-.99,0-1.746-.892-1.746-2.053Zm3.105,.828l.405-1.971c-.216-.324-.612-.531-1.053-.531-.829,0-1.468,.693-1.468,1.593,0,.757,.486,1.288,1.17,1.288,.36,0,.667-.127,.945-.379Z"/>
    <path d="M309.688,203.896l.612-2.854h.999l-.567,2.62c-.152,.685,.171,1.144,.783,1.144,.369,0,.712-.162,1-.495l.711-3.268h1.008l-.98,4.51h-1l.136-.675c-.405,.485-.9,.738-1.44,.738-.945,0-1.477-.729-1.261-1.72Z"/>
    <path d="M315.853,199.097l1.026-.18-1.387,6.635h-1.008l1.368-6.455Z"/>
    <path d="M317.004,203.535c0-1.404,1.071-2.566,2.377-2.566,1.107,0,1.882,.829,1.882,2.007,0,.207-.01,.388-.036,.567h-3.25c.009,.721,.531,1.261,1.233,1.261,.387,0,.765-.126,1.035-.36l.54,.657c-.549,.378-1.062,.54-1.656,.54-1.252,0-2.125-.864-2.125-2.106Zm3.358-.621c-.027-.639-.45-1.107-1.045-1.107s-1.08,.45-1.27,1.107h2.314Z"/>
  </g>
  <g>
    <path d="M183.039,236.973c0-1.404,1.071-2.566,2.376-2.566,1.107,0,1.882,.829,1.882,2.008,0,.207-.009,.387-.036,.567h-3.25c.009,.72,.531,1.261,1.233,1.261,.387,0,.765-.126,1.035-.36l.54,.657c-.549,.378-1.062,.54-1.656,.54-1.251,0-2.125-.864-2.125-2.106Zm3.358-.621c-.027-.639-.45-1.107-1.044-1.107s-1.08,.45-1.27,1.107h2.314Z"/>
    <path d="M188.016,234.479h1.044l.513,3.295,1.926-3.295h1.089l-2.8,4.51h-.963l-.81-4.51Z"/>
    <path d="M192.561,236.973c0-1.404,1.071-2.566,2.376-2.566,1.107,0,1.882,.829,1.882,2.008,0,.207-.009,.387-.036,.567h-3.25c.009,.72,.531,1.261,1.233,1.261,.387,0,.765-.126,1.035-.36l.54,.657c-.549,.378-1.062,.54-1.656,.54-1.251,0-2.125-.864-2.125-2.106Zm3.358-.621c-.027-.639-.45-1.107-1.044-1.107s-1.08,.45-1.27,1.107h2.314Z"/>
    <path d="M198.321,234.479h.999l-.144,.675c.414-.478,.9-.729,1.45-.729,.963,0,1.485,.711,1.26,1.71l-.612,2.854h-.999l.567-2.611c.153-.684-.162-1.152-.783-1.152-.369,0-.711,.171-.999,.495l-.711,3.268h-1.008l.981-4.51Z"/>
    <path d="M203.172,237.729l.522-2.44h-.882l.18-.81h.864l.27-1.243,1.053-.216-.315,1.458h1.233l-.18,.81h-1.233l-.486,2.26c-.099,.468,.063,.648,.576,.648,.144,0,.234-.009,.513-.081l-.18,.855c-.216,.054-.495,.09-.765,.09-.936,0-1.35-.478-1.17-1.333Z"/>
    <path d="M208.311,236.973c0-1.422,1.089-2.575,2.44-2.575,1.179,0,2.025,.882,2.025,2.106,0,1.414-1.107,2.575-2.439,2.575-1.17,0-2.026-.882-2.026-2.106Zm3.475-.45c0-.756-.432-1.26-1.098-1.26-.774,0-1.396,.747-1.396,1.674,0,.756,.441,1.261,1.098,1.261,.783,0,1.396-.729,1.396-1.675Z"/>
    <path d="M214.287,234.479h1.008l-.198,.891c.378-.639,.828-.963,1.341-.963,.18,0,.369,.045,.504,.108l-.198,.891c-.108-.081-.378-.135-.594-.135-.441,0-.874,.243-1.179,.675l-.667,3.043h-.999l.981-4.51Z"/>
    <path d="M192.561,248.333l.558-.648c.567,.459,.955,.621,1.45,.621,.477,0,.837-.27,.837-.612,0-.242-.153-.387-.531-.485l-.766-.198c-.702-.198-1.053-.595-1.053-1.18,0-.873,.657-1.431,1.692-1.431,.675,0,1.296,.234,1.837,.675l-.558,.639c-.441-.351-.918-.541-1.333-.541-.468,0-.748,.208-.748,.531,0,.252,.135,.388,.522,.495l.765,.207c.747,.207,1.107,.576,1.107,1.135,0,.882-.765,1.539-1.801,1.539-.774,0-1.494-.27-1.98-.747Z"/>
    <path d="M197.925,244.479h.999l-.972,4.51h-1.008l.981-4.51Zm.153-1.467c0-.369,.324-.703,.693-.703,.306,0,.558,.243,.558,.558,0,.378-.315,.693-.693,.693-.324,0-.558-.234-.558-.549Z"/>
    <path d="M199.211,250.304l.459-.711c.513,.359,1.026,.54,1.512,.54,.594,0,.981-.307,1.099-.873l.153-.721c-.324,.306-.738,.478-1.207,.478-.999,0-1.746-.883-1.746-2.044,0-1.386,1.035-2.53,2.305-2.53,.585,0,1.062,.252,1.368,.693l.135-.657h.981l-1.026,4.888c-.216,1.035-.927,1.594-2.017,1.594-.693,0-1.476-.252-2.017-.657Zm3.385-2.512l.396-1.963c-.225-.324-.63-.522-1.062-.522-.819,0-1.458,.693-1.458,1.584,0,.756,.477,1.287,1.17,1.287,.351,0,.675-.135,.954-.387Z"/>
    <path d="M205.512,244.479h.999l-.144,.675c.414-.478,.9-.729,1.45-.729,.963,0,1.485,.711,1.26,1.711l-.612,2.854h-.999l.567-2.61c.153-.685-.162-1.153-.783-1.153-.369,0-.711,.171-.999,.495l-.711,3.268h-1.008l.981-4.51Z"/>
    <path d="M209.759,247.801c0-.882,.693-1.449,1.774-1.449,.486,0,.954,.117,1.323,.324l.09-.388c.153-.693-.171-1.044-.963-1.044-.333,0-.711,.09-1.225,.288l-.243-.738c.648-.252,1.197-.378,1.71-.378,1.314,0,1.972,.693,1.72,1.837l-.603,2.736h-.991l.09-.405c-.432,.315-.81,.459-1.233,.459-.882,0-1.45-.485-1.45-1.242Zm2.8,.207l.171-.756c-.288-.171-.648-.252-1.081-.252-.585,0-.963,.288-.963,.702,0,.405,.324,.639,.882,.639,.36,0,.675-.099,.991-.333Z"/>
    <path d="M215.898,242.535l1.026-.18-1.387,6.635h-1.008l1.369-6.455Z"/>
  </g>
  <g>
    <circle class="uuid-91a47e3c-660a-4e3c-8882-ed02f07ab9d0" cx="221.105" cy="36.787" r="7.994"/>
    <path class="uuid-0769f075-b789-4122-835b-74bc2f7f1bd3" d="M220.333,35.578h-2.025v-1.323h5.6v1.323h-2.026v4.979h-1.548v-4.979Z"/>
  </g>
  <g>
    <circle class="uuid-91a47e3c-660a-4e3c-8882-ed02f07ab9d0" cx="221.105" cy="163.392" r="7.994"/>
    <path class="uuid-0769f075-b789-4122-835b-74bc2f7f1bd3" d="M218.645,159.86h3.061c1.297,0,2.224,.837,2.224,2.007,0,.801-.459,1.45-1.17,1.765l1.323,2.53h-1.729l-1.144-2.313h-1.017v2.313h-1.549v-6.302Zm2.917,2.772c.478,0,.801-.297,.801-.747s-.323-.747-.801-.747h-1.368v1.494h1.368Z"/>
  </g>
  <path class="uuid-0769f075-b789-4122-835b-74bc2f7f1bd3" d="M218.486,288.229h1.549v2.737l2.35-2.737h1.846l-2.755,2.962,2.917,3.34h-2.026l-2.331-2.863v2.863h-1.549v-6.302Z"/>
  <rect class="uuid-5f904976-d0df-4454-a107-b9c369d22af1" x="176.895" y="276.76" width="244.211" height="56.842"/>
  <g>
    <path d="M278.785,321.245l.65-.879c.899,.74,1.549,1.02,2.358,1.02,.919,0,1.559-.47,1.559-1.12,0-.569-.339-.839-1.269-1l-1.29-.22c-1.209-.22-1.799-.819-1.799-1.779,0-1.27,1.009-2.109,2.579-2.109,1.049,0,2.009,.31,2.809,.899l-.61,.899c-.7-.53-1.449-.81-2.239-.81-.839,0-1.399,.43-1.399,1,0,.51,.32,.77,1.079,.89l1.25,.21c1.409,.25,2.069,.869,2.069,1.929,0,1.289-1.14,2.199-2.809,2.199-1.099,0-2.049-.38-2.938-1.129Z"/>
    <path d="M285.615,315.099l1.129-.2v7.366h-1.129v-7.166Z"/>
    <path d="M287.905,319.766c0-1.469,1.06-2.589,2.438-2.589,1.37,0,2.369,1.089,2.369,2.589v.27h-3.698c.11,.81,.72,1.399,1.499,1.399,.47,0,.91-.18,1.189-.47l.74,.669c-.61,.51-1.219,.73-1.979,.73-1.439,0-2.559-1.129-2.559-2.599Zm3.738-.43c-.12-.73-.64-1.239-1.309-1.239-.68,0-1.179,.49-1.309,1.239h2.618Z"/>
    <path d="M293.655,319.766c0-1.469,1.06-2.589,2.438-2.589,1.37,0,2.369,1.089,2.369,2.589v.27h-3.698c.11,.81,.72,1.399,1.499,1.399,.47,0,.91-.18,1.189-.47l.74,.669c-.61,.51-1.219,.73-1.979,.73-1.439,0-2.559-1.129-2.559-2.599Zm3.738-.43c-.12-.73-.64-1.239-1.309-1.239-.68,0-1.179,.49-1.309,1.239h2.618Z"/>
    <path d="M299.615,317.257h1.109v.709c.359-.47,.919-.75,1.559-.75,1.27,0,2.259,1.129,2.259,2.549,0,1.429-1.02,2.548-2.328,2.548-.59,0-1.109-.22-1.47-.64v2.679h-1.129v-7.096Zm3.817,2.509c0-.91-.64-1.599-1.489-1.599-.499,0-.909,.2-1.199,.56v2.089c.29,.35,.72,.56,1.199,.56,.859,0,1.489-.689,1.489-1.609Z"/>
    <path d="M305.585,315.548c0-.38,.31-.7,.699-.7,.38,0,.7,.32,.7,.7s-.32,.689-.7,.689c-.39,0-.699-.31-.699-.689Zm.13,1.709h1.129v5.007h-1.129v-5.007Z"/>
    <path d="M308.245,317.257h1.129v.82c.38-.59,.93-.9,1.579-.9,1.029,0,1.749,.73,1.749,1.789v3.298h-1.14v-2.979c0-.729-.43-1.199-1.099-1.199-.46,0-.83,.21-1.09,.61v3.568h-1.129v-5.007Z"/>
    <path d="M314.395,323.964l.39-.83c.59,.29,1.069,.419,1.569,.419,.84,0,1.279-.379,1.279-1.109v-.849c-.36,.439-.91,.699-1.539,.699-1.27,0-2.259-1.129-2.259-2.548s1.029-2.529,2.339-2.529c.579,0,1.099,.23,1.469,.67v-.63h1.119v5.187c0,1.29-.839,2.009-2.358,2.009-.72,0-1.419-.18-2.009-.49Zm3.238-3.158v-2.099c-.29-.34-.72-.54-1.189-.54-.859,0-1.499,.669-1.499,1.589,0,.91,.64,1.599,1.499,1.599,.489,0,.899-.2,1.189-.549Z"/>
  </g>
  <circle class="uuid-91a47e3c-660a-4e3c-8882-ed02f07ab9d0" cx="221.105" cy="291.76" r="7.994"/>
  <circle class="uuid-91a47e3c-660a-4e3c-8882-ed02f07ab9d0" cx="273.035" cy="291.76" r="7.994"/>
  <circle class="uuid-91a47e3c-660a-4e3c-8882-ed02f07ab9d0" cx="324.965" cy="291.76" r="7.994"/>
  <path class="uuid-0769f075-b789-4122-835b-74bc2f7f1bd3" d="M270.317,288.229h2.565c1.765,0,3.169,1.404,3.169,3.151s-1.404,3.151-3.169,3.151h-2.565v-6.302Zm2.565,4.979c.874,0,1.566-.811,1.566-1.828s-.692-1.828-1.566-1.828h-1.017v3.655h1.017Z"/>
  <path class="uuid-0769f075-b789-4122-835b-74bc2f7f1bd3" d="M218.486,288.229h1.549v2.737l2.35-2.737h1.846l-2.755,2.962,2.917,3.34h-2.026l-2.331-2.863v2.863h-1.549v-6.302Z"/>
  <circle class="uuid-91a47e3c-660a-4e3c-8882-ed02f07ab9d0" cx="376.895" cy="291.76" r="7.994"/>
  <path class="uuid-0769f075-b789-4122-835b-74bc2f7f1bd3" d="M322.188,294.185l.792-1.143c.874,.612,1.423,.837,2.044,.837,.666,0,1.071-.271,1.071-.667,0-.369-.216-.549-.828-.657l-1.342-.234c-.999-.171-1.548-.801-1.548-1.692,0-1.225,.936-1.99,2.503-1.99,.972,0,1.936,.315,2.583,.828l-.783,1.125c-.612-.468-1.215-.693-1.881-.693-.612,0-.964,.252-.964,.594,0,.324,.207,.486,.711,.576l1.261,.216c1.18,.198,1.801,.819,1.801,1.782,0,1.233-1.045,2.071-2.692,2.071-.999,0-1.89-.333-2.728-.955Z"/>
  <path class="uuid-0769f075-b789-4122-835b-74bc2f7f1bd3" d="M376.121,288.229h1.548v6.302h-1.548v-6.302Z"/>
  <g>
    <circle class="uuid-91a47e3c-660a-4e3c-8882-ed02f07ab9d0" cx="376.895" cy="163.392" r="7.994"/>
    <path class="uuid-0769f075-b789-4122-835b-74bc2f7f1bd3" d="M374.435,159.86h3.061c1.297,0,2.224,.837,2.224,2.007,0,.801-.459,1.45-1.17,1.765l1.323,2.53h-1.729l-1.144-2.313h-1.017v2.313h-1.549v-6.302Zm2.917,2.772c.478,0,.801-.297,.801-.747s-.323-.747-.801-.747h-1.368v1.494h1.368Z"/>
  </g>
  <g>
    <circle class="uuid-91a47e3c-660a-4e3c-8882-ed02f07ab9d0" cx="532.684" cy="163.392" r="7.994"/>
    <path class="uuid-0769f075-b789-4122-835b-74bc2f7f1bd3" d="M530.142,165.153l3.124-4.024-3.105,.027v-1.296h5.086v1.008l-3.105,4.024,3.133-.027v1.296h-5.132v-1.008Z"/>
  </g>
  <g>
    <circle class="uuid-91a47e3c-660a-4e3c-8882-ed02f07ab9d0" cx="532.684" cy="62.198" r="7.994"/>
    <path class="uuid-0769f075-b789-4122-835b-74bc2f7f1bd3" d="M531.799,62.691l-2.277-3.025h1.846l1.359,1.908,1.35-1.908h1.773l-2.269,3.079,2.413,3.223h-1.846l-1.494-2.125-1.504,2.125h-1.773l2.422-3.277Z"/>
  </g>
  <g>
    <line class="uuid-c846ef5c-8b3c-416d-8b84-00d587341997" x1="109.526" y1="177.813" x2="171.513" y2="177.813"/>
    <polygon points="170.418 181.552 176.895 177.813 170.418 174.073 170.418 181.552"/>
  </g>
  <g>
    <line class="uuid-c846ef5c-8b3c-416d-8b84-00d587341997" x1="421.105" y1="177.813" x2="483.092" y2="177.813"/>
    <polygon points="481.997 181.552 488.474 177.813 481.997 174.073 481.997 181.552"/>
  </g>
  <g>
    <line class="uuid-c846ef5c-8b3c-416d-8b84-00d587341997" x1="265.316" y1="170.01" x2="327.302" y2="170.01"/>
    <polygon points="326.208 173.749 332.684 170.01 326.208 166.27 326.208 173.749"/>
  </g>
  <g>
    <line class="uuid-c846ef5c-8b3c-416d-8b84-00d587341997" x1="270.698" y1="184.849" x2="332.684" y2="184.849"/>
    <polygon points="271.792 188.588 265.316 184.849 271.792 181.109 271.792 188.588"/>
  </g>
  <g>
    <path d="M242.187,292.744c0-1.422,1.089-2.575,2.44-2.575,1.179,0,2.025,.882,2.025,2.106,0,1.414-1.107,2.575-2.439,2.575-1.17,0-2.026-.882-2.026-2.106Zm3.475-.45c0-.756-.432-1.26-1.098-1.26-.774,0-1.396,.747-1.396,1.674,0,.756,.441,1.261,1.098,1.261,.783,0,1.396-.729,1.396-1.675Z"/>
    <path d="M248.163,290.25h1.008l-.198,.891c.378-.639,.828-.963,1.341-.963,.18,0,.369,.045,.504,.108l-.198,.891c-.108-.081-.378-.135-.594-.135-.441,0-.874,.243-1.179,.675l-.667,3.043h-.999l.981-4.51Z"/>
  </g>
  <g>
    <path d="M295.04,292.744c0-1.422,1.089-2.575,2.44-2.575,1.179,0,2.025,.882,2.025,2.106,0,1.414-1.107,2.575-2.439,2.575-1.17,0-2.026-.882-2.026-2.106Zm3.475-.45c0-.756-.432-1.26-1.098-1.26-.774,0-1.396,.747-1.396,1.674,0,.756,.441,1.261,1.098,1.261,.783,0,1.396-.729,1.396-1.675Z"/>
    <path d="M301.016,290.25h1.009l-.198,.891c.378-.639,.828-.963,1.342-.963,.18,0,.369,.045,.504,.108l-.198,.891c-.107-.081-.378-.135-.594-.135-.441,0-.874,.243-1.18,.675l-.666,3.043h-.999l.98-4.51Z"/>
  </g>
  <g>
    <path d="M347.894,292.744c0-1.422,1.089-2.575,2.439-2.575,1.18,0,2.025,.882,2.025,2.106,0,1.414-1.107,2.575-2.439,2.575-1.17,0-2.025-.882-2.025-2.106Zm3.475-.45c0-.756-.432-1.26-1.098-1.26-.774,0-1.396,.747-1.396,1.674,0,.756,.44,1.261,1.098,1.261,.783,0,1.396-.729,1.396-1.675Z"/>
    <path d="M353.869,290.25h1.009l-.198,.891c.378-.639,.828-.963,1.342-.963,.18,0,.369,.045,.504,.108l-.198,.891c-.107-.081-.378-.135-.594-.135-.441,0-.874,.243-1.18,.675l-.666,3.043h-.999l.98-4.51Z"/>
  </g>
</svg>